<?xml version="1.0" encoding="UTF-8" standalone="no"?>
<!-- Created with Inkscape (http://www.inkscape.org/) -->

<svg
   width="505.46271"
   height="414.30829"
   viewBox="0 0 133.737 109.61907"
   version="1.1"
   id="svg5"
   inkscape:version="1.1 (1:1.1+202105261517+ce6663b3b7)"
   sodipodi:docname="drawing.svg"
   xmlns:inkscape="http://www.inkscape.org/namespaces/inkscape"
   xmlns:sodipodi="http://sodipodi.sourceforge.net/DTD/sodipodi-0.dtd"
   xmlns="http://www.w3.org/2000/svg"
   xmlns:svg="http://www.w3.org/2000/svg">
  <sodipodi:namedview
     id="namedview7"
     pagecolor="#ffffff"
     bordercolor="#666666"
     borderopacity="1.0"
     inkscape:pageshadow="2"
     inkscape:pageopacity="0.0"
     inkscape:pagecheckerboard="0"
     inkscape:document-units="px"
     showgrid="false"
     showborder="true"
     units="px"
     inkscape:zoom="0.91716858"
     inkscape:cx="166.2726"
     inkscape:cy="183.17243"
     inkscape:window-width="1920"
     inkscape:window-height="1022"
     inkscape:window-x="0"
     inkscape:window-y="27"
     inkscape:window-maximized="1"
     inkscape:current-layer="layer1"
     fit-margin-top="0"
     fit-margin-left="0"
     fit-margin-right="0"
     fit-margin-bottom="0" />
  <defs
     id="defs2" />
  <g
     inkscape:label="Layer 1"
     inkscape:groupmode="layer"
     id="layer1"
     transform="translate(-36.314728,-130.6871)">
    <path
       style="fill:#000000;stroke-width:0.464184"
       d="m 36.638642,239.94045 c -0.170201,-0.1702 -0.309456,-6.12336 -0.309456,-13.22925 v -12.91979 h 13.229246 13.229246 v 13.22925 13.22924 h -12.91979 c -7.105885,0 -13.059045,-0.13925 -13.229246,-0.30945 z m 22.435563,-13.15188 v -9.28369 h -9.283681 -9.283681 v 9.28369 9.28368 h 9.283681 9.283681 z m -14.85389,0 v -5.57021 h 5.570209 5.570209 v 5.57021 5.5702 h -5.570209 -5.570209 z m 23.049059,12.61246 c -0.97042,-1.0723 -0.993577,-2.80726 -0.0423,-3.17228 0.39923,-0.1532 1.23477,-0.0467 1.85674,0.23671 0.88672,0.40401 1.13086,0.86814 1.13086,2.14985 0,1.4053 -0.15269,1.63459 -1.08852,1.63459 -0.59868,0 -1.43421,-0.38199 -1.85673,-0.84887 z m 7.79808,-0.29049 c -0.62665,-0.62665 -1.14388,-1.40996 -1.1494,-1.74069 -0.006,-0.33073 -0.6844,-0.91465 -1.5086,-1.2976 -1.01247,-0.47043 -1.64262,-1.18562 -1.94269,-2.20488 -0.40003,-1.35881 -0.61895,-1.5086 -2.20487,-1.5086 -2.114521,0 -2.209039,-0.55148 -0.4039,-2.35662 2.2429,-2.2429 5.714,-1.71397 6.30135,0.96021 0.29884,1.36065 0.37708,1.39641 3.05492,1.39641 2.98868,0 4.60496,0.97754 4.60496,2.78511 0,0.851 0.30946,0.92837 3.71347,0.92837 4.26093,0 4.6781,0.49934 2.35663,2.82081 -1.33701,1.33701 -1.4323,1.35684 -6.51968,1.35684 -4.86261,0 -5.22908,-0.0662 -6.30219,-1.13936 z m 18.704515,0.638 c -0.525275,-0.30594 -0.812325,-1.0391 -0.812325,-2.07471 0,-1.30912 0.1751,-1.60158 0.958885,-1.60158 1.82865,0 2.75459,0.86367 2.75459,2.56934 0,1.36261 -0.15956,1.60615 -1.04441,1.5942 -0.57443,-0.008 -1.40996,-0.22703 -1.85674,-0.48725 z m 11.467461,-0.638 c -0.62665,-0.62665 -1.13936,-1.46218 -1.13936,-1.85674 0,-0.55263 -0.53999,-0.71737 -2.35144,-0.71737 -3.423541,0 -5.053941,-1.0079 -5.068401,-3.13324 -0.005,-0.79444 -0.27692,-1.04442 -1.13441,-1.04442 -1.76911,0 -2.586175,-1.17537 -2.586175,-3.7203 0,-1.81071 0.20562,-2.40547 1.031655,-2.98405 0.56741,-0.39742 1.40294,-0.72259 1.85674,-0.72259 0.65314,0 0.82508,-0.38693 0.82508,-1.85674 0,-1.72411 -0.0928,-1.85673 -1.29972,-1.85673 -1.64944,0 -2.413755,-0.76432 -2.413755,-2.41376 0,-1.11404 0.18567,-1.29972 1.299715,-1.29972 1.61991,0 2.41376,0.76038 2.41376,2.31199 0,0.91028 0.34144,1.32683 1.42182,1.73463 0.9016,0.34032 1.61819,1.05691 1.958511,1.95851 0.46841,1.24096 0.75991,1.42182 2.29165,1.42182 1.38966,0 1.75497,0.1764 1.75497,0.84745 0,0.90996 -1.57487,2.54629 -2.90116,3.01437 -0.56616,0.19982 -0.81232,0.78343 -0.81232,1.92591 0,1.60296 0.0411,1.63921 1.85674,1.63921 h 1.85674 v -1.85673 c 0,-1.19725 0.21062,-1.85674 0.59299,-1.85674 0.98133,0 2.68708,1.4131 3.13829,2.59985 0.35007,0.92078 0.7469,1.11362 2.29161,1.11362 h 1.86822 v -7.42694 -7.42695 h -1.07174 c -2.08562,0 -2.80744,-1.04114 -3.01836,-4.35363 -0.16599,-2.60679 -0.32566,-3.07331 -1.0519,-3.07331 -1.07151,0 -2.74911,-1.75298 -2.74911,-2.87263 0,-0.71824 -0.4061,-0.84084 -2.78511,-0.84084 -3.027161,0 -4.641841,-0.96881 -4.641841,-2.78511 0,-0.77364 -0.30946,-0.92837 -1.85674,-0.92837 h -1.856735 v 1.85674 c 0,1.72411 0.0928,1.85674 1.299715,1.85674 1.87283,0 2.41376,0.7951 2.41376,3.54789 0,1.98887 -0.18862,2.56597 -1.03165,3.15646 -1.32434,0.92759 -4.039315,0.92759 -5.363645,0 -0.88458,-0.61958 -1.03165,-1.149 -1.03165,-3.71348 v -2.99087 h -1.85674 c -1.48819,0 -1.85674,-0.16822 -1.85674,-0.84746 0,-0.87472 1.59932,-2.59862 2.73084,-2.94357 0.35311,-0.10765 0.87532,-0.91755 1.16046,-1.79978 0.38439,-1.18927 0.88917,-1.71344 1.95213,-2.0271 1.03359,-0.30499 1.55175,-0.82315 1.85674,-1.85674 0.311555,-1.05581 0.820675,-1.55074 1.931655,-1.87781 1.35881,-0.40003 1.5086,-0.61895 1.5086,-2.20488 0,-1.61897 -0.10465,-1.76074 -1.29972,-1.76074 -1.64944,0 -2.413755,-0.76431 -2.413755,-2.41376 0,-1.11404 0.18567,-1.29971 1.299715,-1.29971 1.64945,0 2.41376,0.76431 2.41376,2.41376 0,0.86283 0.24113,1.29971 0.71737,1.29971 0.39456,0 1.23009,0.51272 1.85674,1.13936 1.050551,1.05055 1.139361,1.48477 1.139361,5.57021 v 4.43085 h 2.8062 c 2.36052,0 2.98717,0.18096 3.94557,1.13936 0.62665,0.62665 1.13935,1.57923 1.13935,2.11685 0,0.8457 0.23469,0.95807 1.74069,0.83342 1.67109,-0.13831 1.74997,-0.22249 1.97278,-2.1053 0.22647,-1.91369 0.26024,-1.9474 1.39256,-1.39044 0.63825,0.31394 1.47378,1.25085 1.85673,2.08202 l 0.69628,1.51123 3.48138,-0.12079 3.48138,-0.12079 0.14407,-1.74069 0.14406,-1.74069 h -2.7617 c -3.88793,0 -4.66132,-0.74388 -4.82595,-4.64184 l -0.12743,-3.01719 -3.8164,-0.2321 -3.8164,-0.23209 0.56923,-1.16046 c 0.31308,-0.63825 1.24263,-1.47378 2.06567,-1.85673 1.1417,-0.53123 1.49882,-0.99501 1.50648,-1.95646 0.0107,-1.34093 1.10633,-2.2212 2.76463,-2.2212 0.80924,0 0.95889,-0.28976 0.95889,-1.85674 0,-1.56698 -0.14965,-1.85673 -0.95889,-1.85673 -2.15923,0 -2.75459,-0.79386 -2.75459,-3.67297 0,-1.64632 0.23499,-2.90696 0.59804,-3.20826 0.32891,-0.27297 1.94775,-0.55965 3.59742,-0.63706 2.80179,-0.13148 3.00997,-0.2172 3.15992,-1.30121 0.21972,-1.5884 0.84455,-2.24 2.31041,-2.40941 1.0969,-0.12677 1.25899,-0.369 1.38284,-2.06659 0.12077,-1.65521 0.26776,-1.88965 1.05561,-1.68362 2.57542,0.67349 3.76358,5.3968 1.718,6.82957 -0.5674,0.39743 -1.40294,0.7226 -1.85674,0.7226 -0.73748,0 -0.82508,0.50983 -0.82508,4.80199 0,5.18632 -0.49179,6.33843 -2.70561,6.33843 -0.86638,0 -1.00786,0.26064 -1.00786,1.85674 v 1.85673 h 1.85674 1.85673 v -1.85673 c 0,-2.21423 0.84248,-2.44902 2.57411,-0.71738 0.82743,0.82742 1.13936,1.6444 1.13936,2.98404 0,2.11295 -0.93205,3.30354 -2.58616,3.30354 -1.00574,0 -1.12731,0.20024 -1.12731,1.85674 v 1.85674 h 3.71347 c 3.28583,0 3.71348,0.0976 3.71348,0.84745 0,0.90996 -1.57487,2.54629 -2.90115,3.01437 -0.5919,0.2089 -0.81233,0.79448 -0.81233,2.158 0,1.74007 0.0912,1.87131 1.29972,1.87131 1.97331,0 2.41376,0.77925 2.41376,4.27049 0,3.03267 0.0442,3.15645 1.1273,3.15645 1.76741,0 2.58617,1.17565 2.58617,3.71347 0,2.53782 -0.81876,3.71348 -2.58617,3.71348 -1.09968,0 -1.1273,0.091 -1.1273,3.71347 v 3.71347 h 1.85673 c 1.48819,0 1.85674,0.16822 1.85674,0.84746 0,0.46609 -0.48345,1.30163 -1.07433,1.85673 -0.95038,0.89284 -1.59304,1.00928 -5.57021,1.00928 -2.87269,0 -4.49588,-0.1786 -4.49588,-0.4947 0,-1.05201 0.952,-2.18756 2.30318,-2.74724 1.22813,-0.50871 1.41029,-0.81671 1.41029,-2.38458 v -1.80042 h -3.71347 c -3.58613,0 -3.71347,0.0373 -3.71347,1.08852 0,1.32625 -1.33861,2.62495 -2.70561,2.62495 -0.97037,0 -1.00786,0.18131 -1.00786,4.87393 0,6.37541 -0.29513,6.73067 -5.59131,6.73067 -3.34618,0 -3.85305,-0.11848 -4.87392,-1.13936 z m 21.60564,-23.46239 v -5.57021 h -5.5702 -5.57021 v 5.57021 5.57021 h 5.57021 5.5702 z m -6.86992,1.29971 c -0.30636,-0.30636 -0.55702,-1.14189 -0.55702,-1.85673 0,-1.11405 0.18567,-1.29972 1.29971,-1.29972 0.71485,0 1.55038,0.25066 1.85674,0.55702 0.30636,0.30636 0.55702,1.14189 0.55702,1.85674 0,1.11404 -0.18567,1.29971 -1.29971,1.29971 -0.71485,0 -1.55038,-0.25066 -1.85674,-0.55702 z m 3.15645,22.45459 c 0,-1.60149 2.11352,-3.00453 4.87036,-3.23315 2.26883,-0.18815 2.55492,-0.11411 2.54183,0.65779 -0.0344,2.02503 -2.19583,3.42281 -5.29284,3.42281 -1.74244,0 -2.11935,-0.15071 -2.11935,-0.84745 z m 16.40278,0.32103 c -0.55227,-0.27932 -1.12384,-0.95401 -1.27017,-1.49931 -0.39807,-1.4835 -0.33261,-5.31311 0.0953,-5.5776 0.65062,-0.40211 2.60219,0.84524 3.19528,2.04227 0.41438,0.83636 1.0518,1.21481 2.33007,1.38341 1.44266,0.19028 1.73238,0.39932 1.60835,1.16046 -0.35879,2.20175 -3.73776,3.61414 -5.95887,2.49077 z m 10.05571,-3.39101 v -3.9737 h 6.05473 6.05473 l -0.13638,-3.36533 -0.13638,-3.36534 -5.91835,-0.12991 -5.91835,-0.12991 v -3.69961 -3.6996 h 8.98899 c 8.41375,0 9.06788,0.062 10.22173,0.96967 l 1.23273,0.96967 -0.12572,9.07673 -0.12572,9.07674 -1.30898,0.97796 c -1.20464,0.90002 -2.00942,0.98946 -10.096,1.12215 l -8.78703,0.14418 z m -29.35964,-0.2974 c -0.52526,-0.30594 -0.81232,-1.0391 -0.81232,-2.07472 0,-1.38633 0.1515,-1.60158 1.1273,-1.60158 1.51736,0 2.58617,1.16473 2.58617,2.81826 0,1.10448 -0.19586,1.35675 -1.04441,1.34528 -0.57443,-0.008 -1.40996,-0.22702 -1.85674,-0.48724 z m -33.735696,-4.89936 c -0.70177,-0.89215 -0.96206,-1.89685 -0.96206,-3.71347 0,-1.36973 0.11482,-2.49041 0.25515,-2.49041 0.72986,0 2.91967,1.45732 3.16998,2.10962 0.15859,0.41328 0.28835,1.77874 0.28835,3.03437 0,1.94484 -0.13251,2.28295 -0.89468,2.28295 -0.49207,0 -1.32761,-0.55037 -1.85674,-1.22306 z m 55.597416,0.0922 c -0.68644,-1.50658 -0.20942,-2.58261 1.14493,-2.58261 1.33906,0 2.63952,1.33302 2.63952,2.70561 0,0.84356 -0.26648,1.00786 -1.6346,1.00786 -1.2817,0 -1.74583,-0.24413 -2.14985,-1.13086 z m -67.441476,-3.61426 c -0.39743,-0.56741 -0.7226,-1.40294 -0.7226,-1.85674 0,-0.7219 -0.46441,-0.82508 -3.71347,-0.82508 -2.04241,0 -3.71347,-0.11817 -3.71347,-0.26261 0,-0.56275 1.11691,-2.31874 1.81651,-2.85587 0.40507,-0.31101 1.83313,-0.57211 3.17346,-0.58023 l 2.43697,-0.0148 v -1.85674 -1.85674 h -1.85674 c -2.10381,0 -2.11294,-0.0148 -1.15201,-1.87306 0.74737,-1.44526 1.51736,-1.75387 4.86549,-1.95009 2.05337,-0.12033 2.09127,-0.15195 2.23289,-1.8631 l 0.14407,-1.74069 h -3.97359 -3.97358 v 1.85673 c 0,2.20957 -0.53374,2.32279 -2.35663,0.49989 -0.97098,-0.97098 -1.35684,-1.80855 -1.35684,-2.94525 0,-2.59574 0.96067,-3.071 6.51598,-3.22356 l 4.85653,-0.13338 0.23209,-1.96123 c 0.22646,-1.91369 0.26023,-1.9474 1.39255,-1.39044 0.63825,0.31394 1.47378,1.2442 1.85674,2.06724 0.46862,1.00715 1.02692,1.49972 1.70753,1.50648 1.80855,0.018 2.47012,1.2106 2.47012,4.45295 v 2.98404 h 1.85674 c 2.24441,0 2.45889,0.87882 0.62849,2.57518 -0.98578,0.91359 -1.71883,1.13829 -3.71347,1.13829 h -2.48523 v 4.53856 c 0,5.86546 -0.44011,6.60186 -3.94556,6.60186 -2.05761,0 -2.62833,-0.18268 -3.22297,-1.03165 z m 60.178346,0.47463 c -0.30636,-0.30636 -0.55702,-1.14189 -0.55702,-1.85674 0,-1.11404 0.18567,-1.29971 1.29971,-1.29971 0.71485,0 1.55038,0.25066 1.85674,0.55702 0.30636,0.30636 0.55702,1.14189 0.55702,1.85674 0,1.11404 -0.18567,1.29971 -1.29971,1.29971 -0.71485,0 -1.55038,-0.25066 -1.85674,-0.55702 z m 8.79661,-7.61587 c -0.58574,-0.41027 -1.2223,-1.17122 -1.41458,-1.69101 -0.19228,-0.51978 -1.06504,-1.1763 -1.93945,-1.45893 -1.20021,-0.38792 -1.6987,-0.88359 -2.03398,-2.02246 -0.4018,-1.3648 -0.61495,-1.5086 -2.23615,-1.5086 -1.63894,0 -1.76609,-0.0892 -1.48832,-1.04441 0.6125,-2.10632 1.88816,-2.66906 6.05044,-2.66906 5.0569,0 5.31301,0.31824 5.31301,6.60186 0,4.87111 -0.20884,5.22298 -2.25097,3.79261 z m -42.50962,-3.69696 c -0.40119,-0.40118 -0.72944,-1.24933 -0.72944,-1.88475 0,-1.0512 0.15689,-1.14235 1.74069,-1.01127 1.64617,0.13625 1.74851,0.2386 1.88476,1.88476 0.13108,1.58381 0.0399,1.74069 -1.01126,1.74069 -0.63543,0 -1.48357,-0.32824 -1.88475,-0.72943 z m 50.47719,-0.66636 c -1.77403,-0.71477 -2.00313,-1.9054 -2.00313,-10.41038 v -8.15374 h 4.17766 4.17766 v 5.55634 5.55634 l 5.91834,0.12991 5.91835,0.12992 0.13482,3.82952 0.13482,3.82952 -8.72223,-0.0294 c -4.79722,-0.0162 -9.17855,-0.21329 -9.73629,-0.438 z M 37.097405,209.22907 c -0.422521,-0.46688 -0.768219,-1.30242 -0.768219,-1.85674 0,-0.84356 0.266479,-1.00786 1.634596,-1.00786 1.281705,0 1.745833,0.24413 2.14985,1.13086 0.283389,0.62197 0.389908,1.4575 0.236708,1.85673 -0.379592,0.98921 -2.312552,0.91612 -3.252935,-0.12299 z m 7.679931,0.29185 c -0.306362,-0.30636 -0.557021,-1.1419 -0.557021,-1.85674 0,-1.12911 -0.179339,-1.29971 -1.366231,-1.29971 -1.455154,0 -2.811426,-1.3934 -2.811426,-2.88839 0,-0.4812 -0.343883,-0.82509 -0.825084,-0.82509 -2.70939,0 -4.029019,-3.78668 -1.424673,-4.08811 1.330108,-0.15394 2.713942,1.27318 2.713942,2.79885 0,0.48119 0.343884,0.82508 0.825084,0.82508 1.494989,0 2.888388,1.35627 2.888388,2.81142 0,1.1869 0.170608,1.36624 1.299715,1.36624 1.649448,0 2.413758,0.76431 2.413758,2.41375 0,1.11404 -0.185674,1.29972 -1.299716,1.29972 -0.714843,0 -1.550375,-0.25066 -1.856736,-0.55702 z m 11.627811,-0.13488 c -0.592582,-0.42741 -1.044414,-1.24394 -1.044414,-1.88743 0,-1.07186 -0.147266,-1.13414 -2.681821,-1.13414 -3.116028,0 -4.745124,-0.88554 -4.745124,-2.57934 0,-0.80251 -0.256421,-1.13414 -0.876944,-1.13414 -1.894329,0 -2.805906,-1.43867 -2.941191,-4.64184 l -0.12743,-3.01719 -3.768764,-0.2321 c -3.694147,-0.22749 -3.760952,-0.25309 -3.374185,-1.29301 0.217018,-0.58351 1.02389,-1.41904 1.793047,-1.85674 1.163879,-0.66232 1.39896,-1.08781 1.401403,-2.5365 0.002,-1.15996 0.21434,-1.74069 0.636611,-1.74069 0.923738,0 2.977956,1.73297 3.315731,2.79721 0.159945,0.50395 0.694499,0.91626 1.187898,0.91626 1.785896,0 2.753824,1.63154 2.753824,4.64184 v 2.78511 h 1.856736 1.856736 v -3.71348 c 0,-2.82836 -0.151037,-3.71347 -0.633677,-3.71347 -1.047073,0 -3.079795,-1.86046 -3.079795,-2.81879 0,-0.63785 -0.323607,-0.89468 -1.127304,-0.89468 -1.442126,0 -2.586169,-1.14404 -2.586169,-2.58617 0,-1.1052 -0.07736,-1.1273 -3.945564,-1.1273 -2.170061,0 -3.945565,-0.19286 -3.945565,-0.42857 0,-0.23572 0.540775,-1.07125 1.201723,-1.85674 l 1.201723,-1.42817 h 6.457314 6.457314 v -1.85673 c 0,-1.46981 -0.171942,-1.85674 -0.825084,-1.85674 -1.365533,0 -2.888388,-1.35991 -2.888388,-2.57933 0,-0.77736 -0.259557,-1.13414 -0.825085,-1.13414 -0.453796,0 -1.289327,-0.32517 -1.856736,-0.7226 -0.959211,-0.67186 -1.031652,-1.07928 -1.031652,-5.8023 0,-3.3189 0.17328,-5.0797 0.499891,-5.0797 0.274939,0 1.110471,0.61058 1.856736,1.35684 1.135553,1.13556 1.356846,1.73299 1.356846,3.66315 0,2.05524 0.122796,2.33713 1.128001,2.58942 1.55979,0.39148 2.585471,1.5292 2.585471,2.86789 0,0.94013 0.228502,1.1273 1.37622,1.1273 1.797524,0 2.337253,1.06487 2.337253,4.61132 0,2.67179 0.05759,2.81562 1.127304,2.81562 1.442125,0 2.586168,1.14405 2.586168,2.58617 0,1.00574 0.200237,1.12731 1.856736,1.12731 2.214226,0 2.449014,0.84247 0.717376,2.57411 -2.183621,2.18362 -6.287584,1.16132 -6.287584,-1.56625 0,-0.86638 -0.260639,-1.00786 -1.856737,-1.00786 H 51.64726 v 3.65715 c 0,3.6361 0.0081,3.66053 1.410292,4.24132 1.821415,0.75446 2.303181,1.71749 2.303181,4.60398 v 2.35144 h 5.570208 5.570213 v -3.71348 -3.71347 h -1.85674 c -1.021205,0 -1.856736,-0.0946 -1.856736,-0.21025 0,-0.94229 1.311554,-2.66665 2.392046,-3.14493 1.114071,-0.49313 1.32143,-0.85849 1.32143,-2.32834 0,-1.53941 -0.13272,-1.74342 -1.134143,-1.74342 -1.219422,0 -2.579333,-1.52286 -2.579333,-2.88839 0,-0.65314 -0.386932,-0.82509 -1.856737,-0.82509 -1.365247,0 -1.856736,-0.18989 -1.856736,-0.71737 0,-0.92859 2.067511,-2.9961 2.996097,-2.9961 0.443101,0 0.717376,-0.41617 0.717376,-1.08852 0,-1.32625 1.338604,-2.62495 2.705608,-2.62495 0.930368,0 1.007868,-0.2306 1.007868,-2.99912 0,-3.98081 0.8809,-4.89201 4.72936,-4.89201 1.96996,0 2.69758,-0.17092 2.69758,-0.63368 0,-0.34852 0.43293,-1.18405 0.96206,-1.85673 0.92944,-1.18159 1.12619,-1.22306 5.8023,-1.22306 5.30826,0 5.65965,0.22565 3.87818,2.49041 -0.846,1.07553 -1.29395,1.22306 -3.71347,1.22306 h -2.75141 v 1.85674 1.85673 h 3.71347 c 4.26093,0 4.6781,0.49934 2.35663,2.82081 -1.14333,1.14333 -1.72769,1.35685 -3.71348,1.35685 -2.04717,0 -2.35662,0.12191 -2.35662,0.92837 0,0.5106 -0.41777,1.34613 -0.92837,1.85673 -0.81048,0.81048 -1.54728,0.92837 -5.8023,0.92837 h -4.87393 v 1.85674 1.85673 h 3.22296 c 2.80432,0 3.31683,0.13401 3.94557,1.03166 0.39743,0.5674 0.7226,1.40293 0.7226,1.85673 0,0.65314 0.38693,0.82509 1.85673,0.82509 1.72411,0 1.85674,-0.0928 1.85674,-1.29972 0,-0.71484 0.25066,-1.55037 0.55702,-1.85673 0.30636,-0.30637 1.14189,-0.55703 1.85673,-0.55703 1.20688,0 1.29972,-0.13262 1.29972,-1.85673 0,-2.21423 0.84247,-2.44902 2.57411,-0.71738 0.93575,0.93575 1.13936,1.59938 1.13936,3.71348 v 2.57411 h 1.85674 c 2.21423,0 2.44901,0.84247 0.71737,2.57411 -0.93574,0.93574 -1.59937,1.13936 -3.71347,1.13936 h -2.57411 v 1.76074 c 0,1.58592 0.14979,1.80485 1.5086,2.20488 1.13432,0.33394 1.61878,0.8184 1.95273,1.95273 0.40003,1.35881 0.61895,1.50859 2.20487,1.50859 1.17834,0 1.76075,0.20961 1.76075,0.63368 0,1.04707 -1.86046,3.0798 -2.8188,3.0798 -0.74809,0 -0.89468,0.33513 -0.89468,2.04537 0,1.78627 -0.11255,2.01594 -0.88852,1.81301 -1.75826,-0.45979 -2.76142,-2.10834 -2.91277,-4.78675 -0.13451,-2.38035 -0.22831,-2.56272 -1.38681,-2.69661 -1.46587,-0.16942 -2.09069,-0.82102 -2.31041,-2.40942 -0.13429,-0.97077 -0.44506,-1.184 -1.90121,-1.30452 l -1.74069,-0.14407 v 2.70984 c 0,3.15491 -0.82032,4.64541 -2.67413,4.85885 -0.99581,0.11465 -1.30317,0.42202 -1.41783,1.41783 -0.24565,2.13358 -1.60314,2.67412 -6.715583,2.67412 h -4.566577 l 0.144067,1.74069 c 0.136243,1.64617 0.238594,1.74852 1.884756,1.88476 1.941676,0.1607 2.195356,0.81624 0.923624,2.38676 -1.092006,1.34857 -4.147662,1.74544 -5.565464,0.72284 z m 74.882833,-3.75101 c -0.40119,-0.40118 -0.72943,-1.34115 -0.72943,-2.08883 0,-1.06436 0.20811,-1.35939 0.95888,-1.35939 1.82865,0 2.75459,0.86367 2.75459,2.56934 0,1.39347 -0.1506,1.60832 -1.1273,1.60832 -0.62002,0 -1.45556,-0.32825 -1.85674,-0.72944 z m 8.99252,0.10731 c -1.55214,-0.77365 -2.45135,-2.80869 -2.09065,-4.7314 0.23388,-1.24671 0.61671,-1.67819 1.90099,-2.1426 1.45047,-0.5245 1.60812,-0.75438 1.60812,-2.34499 0,-1.56068 -0.13042,-1.76349 -1.13414,-1.76349 -1.83987,0 -2.57933,-1.5969 -2.57933,-5.5702 0,-3.97331 0.73946,-5.57021 2.57933,-5.57021 1.01371,0 1.13414,-0.19717 1.13414,-1.85674 0,-1.54728 -0.15472,-1.85674 -0.92836,-1.85674 -1.8163,0 -2.78511,-1.61468 -2.78511,-4.64184 v -2.7851 h -1.85673 c -2.18942,0 -2.40069,-0.70841 -0.77493,-2.59846 0.87721,-1.01982 1.57953,-1.29896 3.71347,-1.47592 l 2.63166,-0.21824 v -1.79925 c 0,-1.66116 -0.0998,-1.79926 -1.29971,-1.79926 -1.64945,0 -2.41376,-0.76431 -2.41376,-2.41376 0,-1.11894 0.18368,-1.29971 1.32061,-1.29971 1.53565,0 2.85705,1.25667 2.85705,2.7171 0,0.63541 0.40056,1.17164 1.06349,1.42369 1.48925,0.56621 2.18674,1.53977 2.50406,3.49514 0.21974,1.35407 0.0629,1.90836 -0.79965,2.82652 -0.59015,0.62818 -1.45435,1.14215 -1.92045,1.14215 -0.67924,0 -0.84745,0.36855 -0.84745,1.85674 0,1.65957 0.12043,1.85673 1.13414,1.85673 1.83987,0 2.57933,1.5969 2.57933,5.57021 0,3.97331 -0.73946,5.57021 -2.57933,5.57021 -1.01371,0 -1.13414,0.19717 -1.13414,1.85674 0,1.54727 0.15472,1.85673 0.92837,1.85673 0.5106,0 1.34613,0.41777 1.85673,0.92837 0.77452,0.77451 0.92837,1.54728 0.92837,4.66294 0,3.34619 -0.11849,3.85306 -1.13936,4.87393 -0.62665,0.62665 -1.46218,1.13936 -1.85674,1.13936 -0.50805,0 -0.71737,0.46605 -0.71737,1.59725 0,1.92846 -0.39011,2.23806 -1.88265,1.4941 z m -8.99252,-7.99844 c -0.61976,-0.61975 -0.72943,-2.29479 -0.72943,-11.14041 0,-9.77019 0.0522,-10.41099 0.84745,-10.41099 0.4661,0 1.30163,0.48345 1.85674,1.07433 0.95771,1.01944 1.00928,1.49381 1.00928,9.28368 v 8.20935 h 1.85674 c 1.48818,0 1.85673,0.16822 1.85673,0.84746 0,0.4661 -0.48345,1.30163 -1.07433,1.85674 -1.30593,1.22686 -4.51639,1.38664 -5.62318,0.27984 z m 20.0487,-2.31808 c -0.69883,-0.37918 -1.38492,-1.15413 -1.52463,-1.7221 -0.13972,-0.56798 -0.19459,-4.7703 -0.12195,-9.3385 l 0.13209,-8.30581 1.30866,-0.97787 c 1.15132,-0.86028 2.06748,-0.99632 7.61911,-1.13129 11.57685,-0.28147 11.26423,-0.58098 11.26423,10.79169 0,4.7022 -0.12975,8.88758 -0.28834,9.30085 -0.65056,1.69533 -2.63864,2.11035 -10.0167,2.09104 -5.37352,-0.0141 -7.41108,-0.18636 -8.37247,-0.70801 z m 10.3222,-10.18173 v -3.0172 h -1.62465 -1.62464 v 3.0172 3.0172 h 1.62464 1.62465 z m -102.104159,8.61792 c -0.813332,-1.51972 -0.593161,-2.81562 0.478368,-2.81562 1.72411,0 2.754589,0.87436 2.754589,2.33725 0,1.21605 -0.160172,1.37622 -1.376221,1.37622 -0.885557,0 -1.547538,-0.32011 -1.856736,-0.89785 z m 42.794889,-3.12629 c -1.44575,-0.58169 -1.96302,-2.85362 -1.96302,-8.62187 v -5.72937 l -1.508601,-0.44412 c -1.13432,-0.33395 -1.61878,-0.81841 -1.95273,-1.95273 -0.40002,-1.35881 -0.61895,-1.5086 -2.20487,-1.5086 -1.744745,0 -1.760745,0.0169 -1.760745,1.85674 0,1.74868 0.0801,1.85673 1.376225,1.85673 1.69436,0 2.33725,1.05709 2.33725,3.84311 0,2.64864 -0.99007,3.58384 -3.794125,3.58384 -2.90712,0 -3.63282,-0.91139 -3.63282,-4.56235 v -2.8646 h -1.85674 c -1.25946,0 -1.85674,-0.20384 -1.85674,-0.63368 0,-1.04707 1.86046,-3.07979 2.8188,-3.07979 0.59471,0 0.89468,-0.32149 0.89468,-0.95888 0,-1.55349 0.82981,-2.65918 2.2258,-2.96579 0.95885,-0.2106 1.42175,-0.68249 1.74455,-1.77842 0.328915,-1.11668 0.818715,-1.60343 1.947995,-1.93589 1.35881,-0.40004 1.5086,-0.61896 1.5086,-2.20488 0,-1.61898 -0.10465,-1.76074 -1.29972,-1.76074 -1.64944,0 -2.413755,-0.76431 -2.413755,-2.41376 0,-0.86284 -0.24114,-1.29972 -0.71738,-1.29972 -1.40835,0 -2.99609,-2.16459 -2.99609,-4.08461 0,-2.58889 1.02846,-3.34233 4.562345,-3.34233 h 2.8646 v -3.71348 c 0,-3.44341 -0.0697,-3.71347 -0.95888,-3.71347 -1.73772,0 -2.754595,-0.87316 -2.754595,-2.36527 0,-1.33884 0.0811,-1.39753 1.740695,-1.26018 1.64616,0.13625 1.74851,0.2386 1.88476,1.88476 0.10756,1.29969 0.35166,1.74069 0.96349,1.74069 1.0188,0 2.838001,1.87886 2.838001,2.93107 0,0.60335 0.42492,0.7824 1.85674,0.7824 1.46981,0 1.85674,-0.17194 1.85674,-0.82508 0,-1.35686 1.36007,-2.88839 2.56504,-2.88839 1.11564,0 1.12034,-0.0214 1.25019,-5.68625 0.12359,-5.39196 0.17838,-5.67843 1.05869,-5.53498 1.80971,0.29491 2.71198,1.74564 2.92601,4.70462 l 0.20276,2.80314 h 1.80095 c 0.99052,0 1.80095,0.18071 1.80095,0.40158 0,0.69595 -1.84528,2.78151 -2.70148,3.05326 -0.45128,0.14323 -1.02026,0.93889 -1.2644,1.76812 -0.33367,1.13339 -0.81841,1.61797 -1.95247,1.95184 -1.35881,0.40003 -1.5086,0.61895 -1.5086,2.20487 v 1.76075 h 2.99088 c 4.18542,0 4.43607,0.43452 4.43607,7.69038 0,6.97498 -0.20613,7.27821 -4.80582,7.06992 l -3.05844,-0.1385 0.5689,-1.16046 c 0.31291,-0.63826 1.24897,-1.47379 2.08014,-1.85674 l 1.51123,-0.69627 -0.12079,-3.48139 -0.12079,-3.48138 -1.74069,-0.14406 -1.74069,-0.14407 v 1.88476 c 0,1.40105 -0.18651,1.88475 -0.72678,1.88475 -1.27594,0 -2.37831,-0.85218 -2.97933,-2.30318 -0.50871,-1.22812 -0.81672,-1.41029 -2.38459,-1.41029 -1.79103,0 -1.80042,0.01 -1.80042,1.85674 0,1.72411 0.0928,1.85673 1.29972,1.85673 1.64944,0 2.41376,0.76431 2.41376,2.41376 0,1.11404 -0.18568,1.29972 -1.29972,1.29972 -1.61991,0 -2.41376,-0.76038 -2.41376,-2.31199 0,-0.91028 -0.34144,-1.32683 -1.421821,-1.73463 -0.9016,-0.34032 -1.61819,-1.05691 -1.9585,-1.9585 -0.46842,-1.24097 -0.75992,-1.42183 -2.29165,-1.42183 -1.738015,0 -1.754975,0.0179 -1.754975,1.85674 0,1.72411 0.0928,1.85673 1.299715,1.85673 1.63655,0 2.41376,0.76259 2.41376,2.36835 0,0.98336 0.30858,1.36188 1.42849,1.75228 0.92491,0.32243 1.61533,0.99298 1.958501,1.90215 0.50634,1.34145 0.65081,1.40417 3.23445,1.40417 2.25247,0 2.89485,0.19041 3.8438,1.13936 0.9584,0.95841 1.13935,1.58505 1.13935,3.94557 0,2.764 0.0195,2.8062 1.29972,2.8062 1.64944,0 2.41375,0.76431 2.41375,2.41376 0,1.11893 -0.18368,1.29971 -1.3206,1.29971 -1.52111,0 -2.85704,-1.25329 -2.85704,-2.68028 0,-0.61329 -0.47814,-1.2117 -1.27228,-1.59232 -0.69975,-0.33538 -1.54668,-1.18231 -1.88207,-1.88207 -0.5146,-1.07369 -0.90002,-1.27227 -2.46921,-1.27227 h -1.85943 l 0.14407,1.74069 c 0.12402,1.49843 0.31699,1.76067 1.3866,1.88429 1.46587,0.16941 2.0907,0.82101 2.31041,2.40941 0.12033,0.86989 0.47888,1.19711 1.43196,1.30685 2.01097,0.23153 2.67412,1.65978 2.67412,5.7592 0,4.0176 -0.79987,5.46692 -3.01718,5.46692 -1.04442,0 -1.16046,0.18567 -1.16046,1.85674 0,1.82271 -0.33265,2.11651 -1.75046,1.54606 z M 37.097405,175.34363 c -0.422521,-0.46688 -0.768219,-1.30241 -0.768219,-1.85674 0,-0.84355 0.266479,-1.00786 1.634596,-1.00786 1.281705,0 1.745833,0.24414 2.14985,1.13086 0.283389,0.62197 0.389908,1.4575 0.236708,1.85673 -0.379592,0.98921 -2.312552,0.91612 -3.252935,-0.12299 z m 115.974065,-2.73386 c -0.7659,-0.11279 -1.86253,-0.64253 -2.43696,-1.17719 -1.0099,-0.93998 -1.04442,-1.25388 -1.04442,-9.49668 v -8.52456 l 4.06161,0.13412 4.06161,0.13411 0.13034,5.68626 0.13033,5.68625 h 6.03888 6.03888 l -0.13482,3.82952 -0.13482,3.82952 -7.65904,0.0519 c -4.21247,0.0285 -8.28568,-0.0404 -9.05159,-0.15322 z m -97.710737,-0.80113 c 0,-0.36872 0.486814,-1.23635 1.081809,-1.92807 0.877209,-1.01982 1.579532,-1.29896 3.713473,-1.47592 2.156039,-0.1788 2.631663,-0.0889 2.631663,0.49755 0,2.22019 -2.015923,3.57683 -5.315066,3.57683 -1.531529,0 -2.111879,-0.18423 -2.111879,-0.67039 z m 62.432747,0.13438 c -1.54742,-0.84637 -2.08882,-1.86659 -2.08882,-3.93614 0,-1.51345 0.24061,-2.14231 1.03165,-2.69638 1.30479,-0.91392 6.39529,-1.01708 6.39529,-0.12961 0,0.98133 -1.4131,2.68709 -2.59985,3.13829 -0.92078,0.35008 -1.11362,0.74692 -1.11362,2.29162 0,1.99125 -0.16796,2.12897 -1.62465,1.33222 z m -79.282604,-3.94298 c -1.547814,-0.81098 -2.18169,-2.28317 -2.18169,-5.067 0,-2.40045 0.656479,-2.64723 2.598462,-0.9768 1.012922,0.87128 1.299184,1.58231 1.470953,3.65362 0.117301,1.41449 0.03217,2.68374 -0.189178,2.82054 -0.22135,0.1368 -0.985696,-0.0569 -1.698547,-0.43036 z m 47.834138,0.26415 c -0.52526,-0.30594 -0.81232,-1.0391 -0.81232,-2.07471 0,-1.30911 0.17511,-1.60158 0.95889,-1.60158 1.82864,0 2.75459,0.86367 2.75459,2.56934 0,1.36261 -0.15956,1.60616 -1.04442,1.5942 -0.57443,-0.008 -1.40996,-0.22702 -1.85674,-0.48725 z m 44.942966,-0.22807 c -0.40119,-0.40118 -0.72943,-1.21347 -0.72943,-1.80507 0,-0.85599 -0.32262,-1.13617 -1.57983,-1.37202 -1.64408,-0.30844 -2.13365,-0.96514 -2.13365,-2.86211 0,-0.91994 0.23453,-1.12249 1.29972,-1.12249 1.64945,0 2.41376,0.76431 2.41376,2.41375 0,1.11405 0.18567,1.29972 1.29971,1.29972 1.70915,0 2.41376,0.77236 2.41376,2.64585 0,1.31246 -0.16143,1.53181 -1.1273,1.53181 -0.62002,0 -1.45556,-0.32825 -1.85674,-0.72944 z m -79.331264,-3.75768 c -0.170201,-0.1702 -0.309456,-1.00573 -0.309456,-1.85673 0,-1.38519 0.136161,-1.54728 1.299715,-1.54728 1.649448,0 2.413758,0.76431 2.413758,2.41375 0,1.16356 -0.162096,1.29972 -1.54728,1.29972 -0.851005,0 -1.686536,-0.13926 -1.856737,-0.30946 z m 7.67451,-0.24756 c -0.306362,-0.30636 -0.557021,-1.14189 -0.557021,-1.85674 0,-1.11404 0.185674,-1.29971 1.299715,-1.29971 1.649448,0 2.413758,0.76431 2.413758,2.41375 0,1.11405 -0.185674,1.29972 -1.299716,1.29972 -0.714843,0 -1.550375,-0.25066 -1.856736,-0.55702 z m 11.063908,-4.0543 c -0.26428,-0.49382 -0.48051,-1.32935 -0.48051,-1.85674 0,-0.74075 -0.29567,-0.95889 -1.29972,-0.95889 -1.64944,0 -2.41375,-0.7643 -2.41375,-2.41375 0,-1.11404 0.18567,-1.29972 1.29971,-1.29972 1.64945,0 2.41376,0.76431 2.41376,2.41376 0,1.12763 0.17999,1.29971 1.35939,1.29971 1.65354,0 2.81827,1.06881 2.81827,2.58617 0,0.97671 -0.21485,1.12731 -1.60832,1.12731 -1.11502,0 -1.75569,-0.27539 -2.08883,-0.89785 z m -34.257131,-15.92883 0.123275,-13.1132 13.1132,-0.12327 13.1132,-0.12328 v 13.23648 13.23647 H 49.551203 36.314728 Z m 22.636202,0.11605 v -9.28368 h -9.283681 -9.283681 v 9.28368 9.28368 h 9.283681 9.283681 z m -14.85389,0 v -5.57021 h 5.570209 5.570209 v 5.57021 5.57021 h -5.570209 -5.570209 z m 30.188299,12.0993 c -0.26429,-0.49382 -0.48052,-1.27982 -0.48052,-1.74666 0,-0.46685 -0.46808,-1.05501 -1.04018,-1.30702 -0.5721,-0.25202 -1.45986,-1.12904 -1.97279,-1.94893 -0.77535,-1.23937 -1.22609,-1.49374 -2.67328,-1.5086 -1.973174,-0.0203 -1.989075,-0.0479 -1.06159,-1.84142 0.79538,-1.53809 1.53528,-1.88994 3.97438,-1.88994 2.40697,0 3.23765,1.21745 3.23765,4.74513 0,2.53012 0.0638,2.68182 1.1273,2.68182 0.62002,0 1.45555,0.32825 1.85674,0.72943 0.40118,0.40119 0.72943,1.23672 0.72943,1.85674 0,0.97671 -0.21485,1.1273 -1.60831,1.1273 -1.11502,0 -1.7557,-0.27538 -2.08883,-0.89785 z m 8.41989,-0.17648 c -0.5551,-0.59088 -1.00928,-1.42641 -1.00928,-1.85673 0,-0.60335 -0.42492,-0.78241 -1.85674,-0.78241 -1.52397,0 -1.85673,-0.16034 -1.85673,-0.89468 0,-1.34726 2.17604,-2.81879 4.16831,-2.81879 2.49745,0 3.25863,1.06572 3.25863,4.56234 0,2.46398 -0.11852,2.8646 -0.84745,2.8646 -0.4661,0 -1.30163,-0.48344 -1.85674,-1.07433 z M 119.41813,143.92448 V 130.688 l 13.1132,0.12328 13.1132,0.12327 0.12327,13.1132 0.12328,13.1132 H 132.6546 119.41813 Z m 22.28083,0.23932 v -9.28368 h -9.28368 -9.28368 v 9.28368 9.28368 h 9.28368 9.28368 z m -14.85389,0 v -5.57021 h 5.57021 5.57021 v 5.57021 5.57021 h -5.57021 -5.57021 z m 22.74502,-1.62465 c 0,-9.36104 0.0576,-10.03753 0.92837,-10.90832 0.8596,-0.8596 1.54728,-0.92837 9.28368,-0.92837 11.10057,0 10.27111,-0.88514 10.106,10.78426 l -0.12604,8.90755 -1.57724,1.06242 c -1.22592,0.82577 -2.224,1.06242 -4.48078,1.06242 -2.79293,0 -2.95769,-0.0663 -4.32553,-1.74069 l -1.42202,-1.74069 -0.0155,1.74069 -0.0156,1.74069 h -4.17766 -4.17766 z m 11.88055,-3.76657 c -0.28947,-0.75436 -3.06105,-0.88005 -3.06105,-0.13883 0,0.27739 0.67887,1.45282 1.5086,2.61207 l 1.5086,2.10772 0.14533,-1.96889 c 0.0799,-1.0829 0.0343,-2.25833 -0.10148,-2.61207 z m -74.798576,9.82207 c -0.62665,-0.62665 -1.13937,-1.46218 -1.13937,-1.85674 0,-0.4431 -0.41617,-0.71738 -1.08851,-0.71738 -1.32626,0 -2.62496,-1.3386 -2.62496,-2.7056 0,-0.86639 -0.26064,-1.00787 -1.85674,-1.00787 -1.48818,0 -1.85673,-0.16821 -1.85673,-0.84745 0,-1.47221 1.95481,-2.86602 4.01958,-2.86602 2.08375,0 3.40736,1.05101 3.40736,2.70561 0,0.74783 0.28084,1.00786 1.08852,1.00786 1.83743,0 2.62496,1.36877 2.62496,4.56235 0,3.26502 -0.61928,3.68007 -2.57411,1.72524 z m -15.72801,-7.01702 c -0.40119,-0.40119 -0.72943,-1.23672 -0.72943,-1.85674 0,-0.88416 -0.24315,-1.1273 -1.12731,-1.1273 -1.44719,0 -2.58616,-1.14539 -2.58616,-2.60074 0,-2.54554 3.54846,-1.76465 3.7983,0.83588 0.13057,1.359 0.32103,1.54946 1.68003,1.68003 2.60053,0.24984 3.38142,3.7983 0.83588,3.7983 -0.62803,0 -1.47012,-0.32824 -1.87131,-0.72943 z m 5.44531,-3.47878 c -0.56106,-0.21215 -1.34318,-1.01048 -1.73804,-1.77405 -0.57425,-1.11048 -1.06682,-1.41719 -2.46127,-1.53255 -1.44805,-0.1198 -1.71772,-0.30147 -1.59206,-1.07259 0.23485,-1.44115 1.59394,-2.55562 3.49221,-2.86367 1.40692,-0.22831 1.94523,-0.0799 2.8734,0.79204 0.95732,0.89936 1.14215,1.50616 1.14215,3.74979 0,2.94435 -0.20786,3.27145 -1.71639,2.70103 z m 9.95565,-0.007 c -0.48317,-0.28142 -0.81232,-1.02804 -0.81232,-1.84262 0,-1.07456 -0.2065,-1.36949 -0.95888,-1.36949 -1.82865,0 -2.75459,-0.86367 -2.75459,-2.56934 0,-1.39346 0.15059,-1.60831 1.1273,-1.60831 1.44213,0 2.58617,1.14404 2.58617,2.58617 0,0.88416 0.24315,1.1273 1.12731,1.1273 1.51736,0 2.58617,1.16472 2.58617,2.81826 0,1.10447 -0.19586,1.35675 -1.04442,1.34528 -0.57443,-0.008 -1.40996,-0.22702 -1.85674,-0.48725 z m 3.63059,-3.94154 c -0.40119,-0.40119 -0.72943,-1.34116 -0.72943,-2.08883 0,-1.06436 0.20811,-1.35939 0.95888,-1.35939 1.82865,0 2.75459,0.86367 2.75459,2.56934 0,1.39346 -0.1506,1.60831 -1.12731,1.60831 -0.62002,0 -1.45555,-0.32824 -1.85673,-0.72943 z"
       id="path136271" />
  </g>
</svg>
